<svg version="1" xmlns="http://www.w3.org/2000/svg" width="346.667" height="346.667" viewBox="0 0 260.000000 260.000000"><path d="M54.5 43c-2.2 1.2-5.9 4.1-8.1 6.6-6.4 7-7.6 12.8-7.2 35.3l.3 18.3-6-.6c-3.3-.4-7.9-.9-10.2-1.2-3.4-.5-4.3-.3-4.3.9 0 .8 4.7 7.3 10.5 14.5L40 129.7v34.2c0 22.4.4 35.8 1.1 38.8.9 3.2 2.7 6 6.3 9.7 8.8 9 4.9 8.6 82.8 8.6 51.4 0 68.8-.3 72-1.2 5.7-1.8 15.2-11 16.7-16.3.7-2.7 1.1-23.1 1.1-62.5 0-63.5-.4-59 5.1-65.5 6.5-7.7 20.9-26.8 20.6-27.2-.3-.2-2.2 1.1-4.3 2.9-4.9 4.1-20.7 18.1-21.4 18.9-.5.5-30 27.3-45.5 41.3-4.9 4.5-12.4 11.2-16.5 15.1-4.1 3.8-12 11-17.5 16-10.4 9.5-19.9 18.1-27.8 25.3l-4.8 4.4-4.4-3.4c-2.4-1.9-6.5-5.3-9.2-7.5-2.6-2.3-12-10-20.8-17.3-8.8-7.3-17.1-14.2-18.5-15.4-10.8-9.1-14.5-12-21.9-16.9-8.8-5.9-9.6-7-2.7-3.8 8.4 3.9 20.3 8.8 45.6 18.4 3 1.2 5.9 2.5 6.4 2.9.6.4 1.7.8 2.5.8.9 0 2.8.6 4.3 1.4 1.4.8 4.3 1.9 6.5 2.6 2.1.7 4.3 1.6 4.8 2 .6.5 2.7 1.1 4.7 1.5 3.3.6 4.5.2 10.5-3.7 3.8-2.5 12.2-8 18.8-12.3 6.6-4.3 16.3-10.6 21.5-14 5.2-3.4 13.8-8.9 19-12.3 15.6-10.1 29.4-19.1 31-20.2.8-.6 4.7-3.1 8.5-5.5 8.4-5.5 30.1-22.5 30.9-24.3.6-1.4-1.4-1.1-6.9 1.3-1.6.7-5.7 2.3-9 3.6-3.3 1.3-7.1 2.9-8.5 3.6-2.3 1.2-2.7.9-6.6-3.5-2.3-2.6-6.1-5.7-8.6-7l-4.5-2.2h-71.4c-70 0-71.5 0-75.4 2zm59 35.1c9.9 5.2 14.3 17.8 9.6 27.5-9 18.6-34.2 16.7-40.4-2.9-2.6-8.1 0-16 7.3-22.5 5.2-4.6 16.8-5.7 23.5-2.1z"/></svg>